<svg width="66" height="60" viewBox="0 0 66 60" fill="none" xmlns="http://www.w3.org/2000/svg">
<path d="M34.87 57.6098C35.6236 58.508 35.375 59.1347 35.265 59.3007C35.14 59.4898 34.4714 59.7079 34.0587 58.9185C33.743 58.3145 33.6402 57.4827 33.0983 57.3159C32.5692 57.1531 32.7142 56.955 33.0609 56.8487C33.4487 56.7299 34.2353 56.8532 34.87 57.6098ZM34.4483 59.9623C34.0599 60.0791 33.2739 59.9517 32.6431 59.1918C31.8941 58.2898 32.1461 57.6643 32.2567 57.4989C32.3827 57.3105 33.0525 57.0958 33.4612 57.8875C33.7737 58.4931 33.8724 59.3254 34.4134 59.4949C34.9416 59.6604 34.7957 59.858 34.4483 59.9623ZM28.7986 54.2175C29.043 54.5443 29.2 55.3327 28.7163 56.1957C28.142 57.2203 27.4739 57.201 27.2817 57.154C27.063 57.1006 26.6295 56.5419 27.2205 55.8781C27.6726 55.3704 28.4097 54.9857 28.3776 54.4142C28.3462 53.8564 28.5803 53.9254 28.7986 54.2175ZM26.8075 56.4134C26.8361 56.9715 26.6022 56.9012 26.3853 56.608C26.1427 56.2799 25.9897 55.4906 26.4777 54.6302C27.0573 53.6085 27.7251 53.6315 27.9172 53.6794C28.1356 53.7338 28.5663 54.2947 27.9719 54.9555C27.5173 55.4609 26.7781 55.8418 26.8075 56.4134ZM65.5058 51.612C64.7909 52.5419 64.1327 52.4249 63.9492 52.3506C63.7404 52.2657 63.3915 51.6494 64.0713 51.0792C64.5914 50.6428 65.3759 50.3699 65.4258 49.7997C65.4745 49.2431 65.6964 49.3456 65.8706 49.6666C66.0657 50.0257 66.1081 50.8286 65.5058 51.612ZM63.586 51.5484C63.5343 52.1047 63.313 52.0011 63.1404 51.6792C62.9474 51.3191 62.9089 50.5159 63.5151 49.7359C64.2348 48.8096 64.8923 48.9298 65.0755 49.0053C65.2839 49.091 65.6295 49.7092 64.9468 50.276C64.4247 50.7098 63.6387 50.9785 63.586 51.5484ZM59.2934 44.7288C59.4885 45.0879 59.5309 45.891 58.9286 46.6743C58.2137 47.604 57.5555 47.4872 57.372 47.4128C57.1632 47.328 56.8143 46.7117 57.4941 46.1414C58.0141 45.7049 58.7987 45.4321 58.8486 44.8619C58.8973 44.3054 59.1192 44.4079 59.2934 44.7288ZM56.5632 46.7415C56.3702 46.3814 56.3317 45.5782 56.9379 44.798C57.6576 43.8719 58.3151 43.9921 58.4983 44.0675C58.7067 44.1533 59.0523 44.7714 58.3696 45.3382C57.8475 45.772 57.0615 46.0408 57.0088 46.6107C56.9571 47.167 56.7358 47.0633 56.5632 46.7415ZM51.5889 56.1282C51.7839 56.4872 51.8263 57.2902 51.2241 58.0736C50.5092 59.0034 49.8509 58.8865 49.6674 58.8121C49.4586 58.7273 49.1098 58.111 49.7896 57.5406C50.3096 57.1044 51.0942 56.8314 51.1441 56.2613C51.1928 55.7047 51.4146 55.8072 51.5889 56.1282ZM49.3042 58.01C49.2525 58.5662 49.0313 58.4627 48.8588 58.1407C48.6656 57.7807 48.6271 56.9774 49.2334 56.1973C49.953 55.2712 50.6105 55.3914 50.7937 55.4668C51.0021 55.5526 51.3479 56.1707 50.6652 56.7375C50.1429 57.1712 49.3569 57.4401 49.3042 58.01ZM58.1256 50.3505C58.3204 50.7096 58.3629 51.5126 57.7606 52.2959C57.0457 53.2257 56.3876 53.1089 56.204 53.0343C55.9951 52.9497 55.6463 52.3334 56.3261 51.7629C56.8462 51.3265 57.6307 51.0538 57.6806 50.4836C57.7295 49.927 57.9513 50.0295 58.1256 50.3505ZM55.8408 52.2324C55.7892 52.7886 55.568 52.6848 55.3953 52.363C55.2021 52.003 55.1637 51.1998 55.7699 50.4196C56.4895 49.4936 57.1471 49.6138 57.3302 49.6892C57.5386 49.775 57.8844 50.393 57.2018 50.9599C56.6794 51.3936 55.8936 51.6625 55.8408 52.2324ZM48.407 50.2846C47.9482 49.9723 48.1443 49.8258 48.5066 49.8268C48.912 49.8279 49.6283 50.1785 50.016 51.0898C50.476 52.1716 50.0565 52.6972 49.9034 52.8234C49.729 52.9671 49.0265 52.9778 48.8607 52.1009C48.734 51.4301 48.8768 50.6043 48.407 50.2846ZM48.9307 53.2144C48.5254 53.2112 47.8109 52.8569 47.4278 51.9437C46.9733 50.8594 47.3953 50.336 47.5493 50.2105C47.7243 50.0676 48.427 50.0605 48.5882 50.9384C48.7116 51.6098 48.5645 52.4349 49.0328 52.7571C49.4899 53.0716 49.2931 53.2173 48.9307 53.2144ZM9.87919 54.5407C10.0395 54.9168 10.0061 55.7202 9.3328 56.4422C8.53355 57.2991 7.88934 57.1195 7.71371 57.0277C7.51383 56.9232 7.22456 56.2762 7.95499 55.7737C8.51369 55.3893 9.32037 55.193 9.4239 54.6304C9.52487 54.081 9.73596 54.2044 9.87919 54.5407ZM7.4276 56.1942C7.32382 56.7431 7.11336 56.6187 6.97182 56.2816C6.81348 55.9047 6.85088 55.1014 7.52784 54.3831C8.33136 53.5304 8.9747 53.7132 9.14985 53.8059C9.34924 53.9114 9.63523 54.5599 8.90223 55.0585C8.34159 55.44 7.53381 55.6321 7.4276 56.1942ZM15.9737 53.017C16.1719 53.3742 16.2213 54.1769 15.626 54.9655C14.9193 55.9017 14.2601 55.7909 14.0759 55.718C13.8664 55.6351 13.5121 55.022 14.1869 54.4455C14.703 54.0044 15.4852 53.7246 15.5301 53.1539C15.574 52.597 15.7966 52.6975 15.9737 53.017ZM13.7057 54.9192C13.659 55.4759 13.4367 55.3742 13.2612 55.0539C13.065 54.6956 13.0196 53.8928 13.6188 53.1072C14.3303 52.1746 14.9889 52.289 15.1727 52.3627C15.3819 52.4467 15.733 53.0617 15.0553 53.6346C14.5369 54.073 13.7534 54.3488 13.7057 54.9192ZM2.76046 50.9761C3.47299 51.9077 3.19663 52.5224 3.07934 52.6834C2.94584 52.8665 2.26815 53.0538 1.8913 52.2463C1.603 51.6285 1.53747 50.7928 1.00362 50.6016C0.482313 50.4148 0.636027 50.2234 0.987177 50.1331C1.37998 50.0321 2.16023 50.1912 2.76046 50.9761ZM2.23392 53.3069C1.84051 53.406 1.06111 53.2428 0.464899 52.4547C-0.242882 51.5195 0.0366463 50.906 0.154671 50.7458C0.289016 50.5634 0.967689 50.3796 1.34052 51.1891C1.62565 51.8082 1.68692 52.6442 2.21992 52.8384C2.74012 53.0279 2.58544 53.2183 2.23392 53.3069ZM9.86701 48.1132C10.5795 49.045 10.3032 49.6596 10.1859 49.8207C10.0525 50.0036 9.3747 50.1912 8.99785 49.3835C8.70955 48.7658 8.64414 47.9301 8.11017 47.7387C7.58898 47.5521 7.74258 47.3607 8.09373 47.2703C8.48653 47.1693 9.26678 47.3285 9.86701 48.1132ZM7.57157 49.5921C6.86367 48.6566 7.1432 48.0434 7.26134 47.8831C7.39557 47.7007 8.07424 47.5167 8.44707 48.3263C8.7322 48.9456 8.79347 49.7816 9.32646 49.9757C9.84667 50.1651 9.69211 50.3557 9.34047 50.4441C8.94706 50.5431 8.16778 50.38 7.57157 49.5921ZM21.7876 52.2695C21.8206 53.4465 21.2389 53.779 21.0505 53.8393C20.8358 53.9079 20.1789 53.6562 20.3449 52.7792C20.4719 52.1084 20.906 51.394 20.5859 50.9217C20.2734 50.4607 20.5092 50.3974 20.8456 50.5333C21.2219 50.6853 21.7598 51.2782 21.7876 52.2695ZM20.2653 53.4533C20.5756 53.9158 20.3395 53.9779 20.0037 53.8402C19.6281 53.6863 19.0931 53.0907 19.0705 52.0993C19.0434 50.9222 19.6267 50.5926 19.8156 50.5334C20.0305 50.4658 20.6861 50.7209 20.5158 51.597C20.3854 52.2672 19.9477 52.9793 20.2653 53.4533ZM27.5551 17.7654C27.8775 17.5003 28.2721 17.2861 28.7142 17.1385C28.7837 17.1154 28.8535 17.0944 28.9232 17.0743C28.7437 17.266 28.5895 17.482 28.4716 17.7152C28.1917 18.2591 28.082 18.8678 28.0791 19.4616C28.0771 20.058 28.1831 20.6482 28.3713 21.208C28.5826 21.8398 28.9032 22.4361 29.3151 22.9614C29.2819 22.9493 29.2487 22.9376 29.2158 22.9237C29.1147 22.8853 29.0135 22.8456 28.9141 22.7975C28.8139 22.7526 28.7134 22.7078 28.6145 22.6551C28.5151 22.6048 28.4113 22.5541 28.3278 22.5065C27.9775 22.3092 27.6626 22.0667 27.4028 21.7829C27.1409 21.501 26.9263 21.182 26.7825 20.8354C26.639 20.4892 26.5652 20.1196 26.5645 19.7512C26.569 19.0158 26.8983 18.2853 27.5551 17.7654ZM25.3259 23.5153C25.7483 24.0697 26.2609 24.5399 26.8173 24.9221C26.9598 25.0208 27.092 25.0998 27.2264 25.1825C27.3591 25.2676 27.499 25.343 27.64 25.4172C27.7788 25.4945 27.9234 25.5636 28.0696 25.6308C28.2135 25.7015 28.3633 25.7628 28.514 25.8226C28.7015 25.8974 28.8932 25.9646 29.0879 26.0255C29.5187 26.1602 29.9657 26.2605 30.4232 26.3194C31.0881 26.3995 31.7728 26.3911 32.449 26.2856C32.7876 26.2298 33.1239 26.1489 33.4536 26.0432C34.0192 25.8619 34.5655 25.6071 35.0729 25.279C35.7763 25.1611 36.4585 24.907 37.067 24.5345C37.3217 24.3804 37.5608 24.2016 37.7902 24.0114C38.0162 23.8167 38.2276 23.6047 38.4239 23.378C38.6166 23.1481 38.7923 22.9027 38.9472 22.6423C39.1013 22.3815 39.2266 22.1014 39.3261 21.8101C39.6938 20.6541 39.7071 19.4556 39.5277 18.301C39.4336 17.7238 39.2873 17.1572 39.0948 16.6085C38.9021 16.0597 38.6565 15.5321 38.3775 15.0264C37.8173 14.0147 37.1107 13.0958 36.3114 12.2803C35.5196 11.4575 34.6127 10.7523 33.6968 10.1086C32.7805 9.46102 31.8541 8.84351 30.9554 8.19302C30.059 7.54166 29.1906 6.8502 28.4365 6.04847C28.0613 5.6473 27.7179 5.21536 27.4392 4.74355C27.1613 4.27248 26.9485 3.76031 26.8435 3.22094C26.7367 2.68219 26.7436 2.12055 26.8487 1.57503C26.9497 1.02766 27.1535 0.500481 27.4051 0C27.123 0.483376 26.8843 1.0001 26.7463 1.5519C26.6071 2.10222 26.5708 2.68453 26.6528 3.2538C26.7315 3.82442 26.9322 4.37413 27.2026 4.87904C27.4732 5.3853 27.8115 5.8501 28.1817 6.28167C28.9269 7.1437 29.7961 7.87479 30.68 8.56675C31.5647 9.25994 32.4837 9.89874 33.3738 10.5624C33.8203 10.8933 34.2552 11.2327 34.6705 11.5898C35.0883 11.9456 35.4821 12.3275 35.8596 12.7229C36.6129 13.5154 37.2691 14.3988 37.7805 15.3574C38.2915 16.3153 38.6601 17.3485 38.8261 18.414C38.9094 18.9462 38.94 19.4855 38.9133 20.0192C38.9017 20.2863 38.8691 20.551 38.8257 20.8123C38.7816 21.0715 38.7194 21.3353 38.6375 21.573C38.306 22.535 37.5771 23.3723 36.6942 23.9156C36.6261 23.9577 36.5568 23.9975 36.4867 24.0362C36.6059 23.8946 36.7202 23.7474 36.8286 23.5938C37.0385 23.2891 37.2247 22.9602 37.3769 22.6075L37.4848 22.3388L37.5769 22.06L37.5989 21.99L37.6159 21.9282L37.6488 21.8052C37.6715 21.7235 37.691 21.6409 37.7093 21.5582C37.7854 21.2279 37.8406 20.8929 37.8702 20.5567C38.0005 19.2108 37.7762 17.857 37.3063 16.6611C36.844 15.4557 36.151 14.4059 35.3755 13.4882C34.9843 13.0302 34.5662 12.6089 34.1357 12.2113C33.7049 11.8139 33.2602 11.4396 32.7969 11.0998C32.6828 11.0118 32.5664 10.9285 32.4498 10.8458C32.3351 10.7645 32.2136 10.6756 32.1043 10.6009L31.4484 10.1492C31.0105 9.85074 30.5792 9.54876 30.1567 9.23939C29.3076 8.62631 28.4865 7.98923 27.7397 7.2953C27.3707 6.94532 27.0132 6.58661 26.7048 6.19712C26.3916 5.81121 26.1229 5.39909 25.9332 4.9557C25.8401 4.7342 25.7645 4.50396 25.7248 4.26633C25.6802 4.02895 25.6655 3.78283 25.6892 3.53388C25.7267 3.03316 25.9215 2.52763 26.1969 2.05275C25.7741 2.39756 25.4069 2.85238 25.1904 3.40923C25.0826 3.68635 25.0146 3.9849 24.9873 4.28947C24.9602 4.59453 24.9786 4.9023 25.0222 5.20465C25.1164 5.80875 25.3286 6.38048 25.5893 6.90939C25.8557 7.43657 26.1639 7.93336 26.5043 8.39668C27.1822 9.32737 27.9541 10.1548 28.7482 10.9362C29.1485 11.3236 29.5547 11.7003 29.9629 12.0699C30.1671 12.2548 30.3752 12.433 30.5814 12.6126L30.8705 12.8685C30.9653 12.9526 31.0604 13.0367 31.151 13.1241C31.8864 13.8148 32.574 14.534 33.1355 15.313C33.7024 16.0843 34.1594 16.9012 34.4392 17.7352C34.7219 18.5685 34.8276 19.4161 34.7362 20.2306C34.7141 20.4343 34.6778 20.6351 34.6318 20.8328C34.6207 20.8824 34.609 20.9317 34.5946 20.9802L34.5746 21.0535L34.5649 21.0897L34.5554 21.1162L34.52 21.2232L34.4753 21.3309C34.4102 21.4742 34.3312 21.619 34.2363 21.7609C34.1373 21.9009 34.0245 22.0368 33.8999 22.1667C33.3923 22.6854 32.682 23.056 31.9209 23.2085C31.456 23.3006 30.969 23.3135 30.4767 23.2501C29.778 22.6647 29.2393 21.8788 28.9196 21.0121C28.7369 20.5132 28.6282 19.9851 28.6163 19.4571C28.6035 18.9305 28.6915 18.4009 28.9102 17.9365C29.1079 17.5101 29.4294 17.1516 29.8352 16.9204C29.904 16.918 29.9727 16.9172 30.0406 16.9197C30.4719 16.9351 30.8892 17.0458 31.2281 17.2916C31.5659 17.5316 31.8299 17.9054 31.9141 18.3406C31.9569 18.5564 31.9574 18.7847 31.9027 19.0049C31.8479 19.2245 31.7402 19.4358 31.582 19.6167C31.424 19.7981 31.2153 19.9449 30.9801 20.0522C30.7449 20.1595 30.4844 20.2272 30.2163 20.2655C30.4841 20.2997 30.7629 20.3076 31.0412 20.255C31.3198 20.2063 31.5988 20.0991 31.8452 19.9225C32.0929 19.7485 32.3033 19.5037 32.4428 19.2176C32.5837 18.9322 32.6582 18.6101 32.6619 18.2852C32.666 17.7655 32.4938 17.2418 32.1883 16.8065C32.4075 16.9325 32.5994 17.1096 32.7512 17.3198C33.0585 17.743 33.1978 18.2938 33.1481 18.8264C33.1226 19.0928 33.0472 19.3561 32.9189 19.5925C32.7914 19.8293 32.6115 20.0382 32.3952 20.2021C31.9614 20.5358 31.3991 20.676 30.8461 20.6945C31.3985 20.7133 31.9786 20.6157 32.4608 20.2959C32.6988 20.1361 32.9051 19.9232 33.0578 19.6744C33.2112 19.426 33.3099 19.1435 33.3545 18.853C33.4436 18.2717 33.3163 17.6553 32.9895 17.1533C32.8262 16.9028 32.6101 16.6824 32.3536 16.5193C32.1422 16.3842 31.9041 16.2929 31.6585 16.2435C31.2389 15.904 30.7315 15.6809 30.2205 15.579C29.5873 15.4489 28.9524 15.471 28.3509 15.5697C27.7487 15.6676 27.1269 15.8495 26.545 16.1714C25.9658 16.494 25.4288 16.9562 25.0208 17.5359C24.6101 18.1133 24.3449 18.8041 24.2388 19.5139C24.13 20.2251 24.1875 20.9564 24.384 21.6387C24.5799 22.3212 24.9018 22.9632 25.3259 23.5153ZM16.9272 28.3465C16.9272 28.3443 16.9331 28.2637 17.1051 28.1355C17.4783 28.3775 18.1578 28.6668 18.654 28.758C20.4405 27.8555 38.5199 28.7979 38.3095 28.7567C40.5628 28.758 39.8309 28.1453 38.6749 27.9363C37.6058 27.743 28.2086 26.0153 19.0541 27.4419C19.5446 27.3321 20.1477 27.22 20.8905 27.1109C23.5654 26.7173 27.1129 26.5006 30.8797 26.5006C34.6421 26.5006 38.1776 26.7173 40.8351 27.1107C44.72 27.686 44.7649 28.34 44.7649 28.3465C44.7649 28.353 44.72 29.007 40.8351 29.5823C38.1776 29.9757 34.6421 30.1924 30.8797 30.1924C27.1129 30.1924 23.5654 29.9757 20.8905 29.5823C16.9725 29.0058 16.9272 28.353 16.9272 28.3465ZM34.9765 52.6892C35.3637 52.9472 35.7411 53.2179 36.1109 53.4961C36.4844 53.7694 36.8456 54.0557 37.2158 54.3276C37.5826 54.6033 37.949 54.8775 38.3267 55.1304C38.6997 55.3898 39.0841 55.6284 39.4806 55.8336C39.8747 56.0428 40.2876 56.2093 40.7117 56.3006C41.1354 56.3847 41.5755 56.379 41.9878 56.2303C42.4048 56.0909 42.7686 55.7991 43.0931 55.4673C42.8539 55.8656 42.5199 56.2293 42.0831 56.4519C41.9721 56.5004 41.8633 56.5612 41.7439 56.5898L41.5667 56.6424C41.5068 56.6549 41.446 56.6632 41.3852 56.6736C41.1415 56.7169 40.8947 56.7024 40.6516 56.6798C40.5313 56.663 40.4117 56.6407 40.2922 56.6178C40.1761 56.5854 40.058 56.5563 39.9437 56.5185C39.7156 56.4421 39.4934 56.3524 39.2772 56.2521C38.8476 56.0461 38.444 55.7992 38.0541 55.538C37.6696 55.2688 37.2968 54.9878 36.9347 54.6955C36.5761 54.3989 36.2192 54.1031 35.8741 53.7947C35.1745 53.1888 34.5056 52.5597 33.7596 52.0077C34.1873 52.19 34.5865 52.4363 34.9765 52.6892ZM20.7952 45.4178C20.0886 45.1687 19.37 44.9576 18.6383 44.8128C17.9074 44.668 17.1634 44.5847 16.4202 44.6016C16.0491 44.6114 15.6776 44.647 15.316 44.7313C15.1355 44.7729 14.9566 44.8258 14.7875 44.9031C14.6205 44.9818 14.4575 45.0812 14.3422 45.2335C14.4355 45.0658 14.593 44.9409 14.758 44.8454C14.9243 44.749 15.1028 44.6765 15.2846 44.6155C15.6503 44.5003 16.03 44.4373 16.4106 44.4106C17.1732 44.3534 17.9382 44.4285 18.6853 44.5714C19.058 44.6486 19.4269 44.7427 19.7909 44.8525C20.1536 44.9665 20.5117 45.0937 20.8629 45.2383C21.5648 45.5277 22.2386 45.8815 22.8778 46.2864C22.1932 45.9656 21.4995 45.6738 20.7952 45.4178ZM31.7975 32.0405C31.6387 32.0748 31.4791 32.1044 31.3197 32.1359L30.8381 32.206L29.8719 32.3324C29.5487 32.3607 29.2246 32.3806 28.9005 32.4051C28.7385 32.4159 28.5762 32.4308 28.414 32.4381L27.9269 32.4494C27.6022 32.4556 27.277 32.4655 26.9522 32.4611L25.9779 32.4348C25.8153 32.4312 25.6533 32.4214 25.4913 32.409L25.0052 32.3759C23.7098 32.2779 22.4195 32.1099 21.1474 31.8502C20.8299 31.7828 20.5121 31.7176 20.196 31.6448C19.8812 31.5649 19.5657 31.4904 19.2526 31.4055C18.6278 31.2305 18.0053 31.0448 17.4005 30.8077C18.6782 31.0223 19.9494 31.2136 21.2233 31.3782C22.4974 31.5389 23.7727 31.6682 25.0498 31.7624C25.688 31.8176 26.3274 31.8421 26.9669 31.8777C27.2867 31.895 27.6067 31.8938 27.9268 31.9068L28.4072 31.922C28.5673 31.9267 28.7274 31.9238 28.8876 31.9252C29.208 31.9269 29.5286 31.9242 29.8499 31.9297L30.8126 31.905L31.2958 31.8986C31.4562 31.8891 31.6165 31.8778 31.7775 31.8712C32.0996 31.855 32.4222 31.8401 32.7473 31.8331C32.4325 31.9079 32.1156 31.9749 31.7975 32.0405ZM31.8486 33.2788C31.6983 33.3129 31.5473 33.3422 31.3962 33.3735L30.9399 33.4435C30.9211 33.4483 30.0431 33.5654 30.0238 33.5697C29.7173 33.598 29.4098 33.6187 29.1023 33.6432C28.9485 33.6539 28.7945 33.6682 28.6406 33.6757C28.6308 33.6767 28.1881 33.6875 28.1783 33.6881C27.87 33.695 27.5614 33.7047 27.253 33.7009C27.2334 33.7012 26.3477 33.6774 26.3281 33.6764C26.1739 33.6729 26.0199 33.6634 25.8662 33.6519C25.8564 33.6512 25.4147 33.6207 25.4049 33.6197C24.1755 33.5248 22.9514 33.3602 21.7459 33.1065C21.4451 33.0406 21.1441 32.9765 20.8449 32.9051C20.5466 32.8273 20.248 32.7539 19.9518 32.6705C19.3606 32.4995 18.7724 32.3165 18.2018 32.0848C19.4138 32.2912 20.6183 32.4759 21.8256 32.6347C23.0329 32.7902 24.2411 32.9152 25.4511 33.0064C26.0561 33.0594 26.662 33.084 27.2682 33.1176C27.5713 33.1339 27.8745 33.1335 28.1781 33.1457C28.1875 33.1459 28.6239 33.1597 28.6334 33.1598C28.7848 33.1641 28.936 33.1617 29.0876 33.1629C29.3912 33.1644 29.695 33.1619 29.9996 33.1671C30.0185 33.1662 30.8931 33.1433 30.9121 33.1427L31.3703 33.1364C31.5226 33.1272 31.6746 33.116 31.8272 33.1096C32.1324 33.0939 32.4388 33.0795 32.7473 33.0727C32.4497 33.147 32.1497 33.2135 31.8486 33.2788ZM31.8998 34.517C31.758 34.5509 31.6153 34.5798 31.4728 34.6111L31.0417 34.681C31.004 34.6906 30.2142 34.7985 30.1758 34.8071C29.8858 34.8354 29.5951 34.8567 29.304 34.8813C29.1584 34.892 29.0129 34.9057 28.8671 34.9134C28.8476 34.9151 28.4492 34.9256 28.4297 34.9268C28.138 34.9343 27.8457 34.9437 27.5538 34.9407C27.5146 34.9412 26.7176 34.9201 26.6784 34.9182C26.5323 34.9145 26.3868 34.9055 26.2412 34.8947C26.2217 34.8931 25.824 34.8655 25.8046 34.8635C24.6411 34.7717 23.4833 34.6104 22.3446 34.3627C22.0603 34.2985 21.7761 34.2354 21.4936 34.1652C21.212 34.0898 20.9304 34.0173 20.6509 33.9357C20.0933 33.7685 19.5396 33.5882 19.003 33.3618C20.1494 33.5599 21.2874 33.7381 22.4279 33.8912C23.5684 34.0414 24.7097 34.1621 25.8524 34.2503C26.424 34.3012 26.9966 34.3259 27.5694 34.3574C27.8558 34.3728 28.1425 34.3732 28.4292 34.3844C28.4481 34.385 28.8407 34.3972 28.8595 34.3974C29.0022 34.4014 29.1448 34.3994 29.2876 34.4006C29.5744 34.4017 29.8615 34.3996 30.1493 34.4044C30.187 34.4027 30.9738 34.3817 31.0118 34.3804L31.445 34.3744C31.5886 34.3653 31.7323 34.3544 31.8769 34.3482C32.1654 34.3328 32.4552 34.3187 32.7473 34.3124C32.4669 34.3861 32.1838 34.4522 31.8998 34.517ZM31.9511 35.7553C31.8177 35.7889 31.6835 35.8179 31.5494 35.8487L31.1437 35.9184C31.0867 35.933 30.3855 36.0317 30.3278 36.0443C30.0544 36.0726 29.7802 36.0948 29.5058 36.1193C29.3685 36.1301 29.2312 36.1431 29.0936 36.1509C29.0644 36.1537 28.7103 36.1637 28.681 36.1657C28.4058 36.1738 28.1301 36.1829 27.8547 36.1806C27.7957 36.1813 27.0874 36.1627 27.0286 36.16C26.8909 36.1563 26.7535 36.1478 26.6161 36.1375C26.5869 36.1351 26.2335 36.1104 26.2043 36.1072C25.1068 36.0185 24.0152 35.8607 22.9431 35.6189C22.6755 35.5564 22.4082 35.4943 22.1423 35.4255C21.8775 35.3521 21.6126 35.2807 21.3502 35.2008C20.8261 35.0373 20.3067 34.8599 19.8042 34.6387C20.885 34.8286 21.9564 35.0002 23.0302 35.1477C24.1039 35.2928 25.1781 35.4091 26.2538 35.4941C26.792 35.543 27.3312 35.5678 27.8707 35.5973C28.1404 35.6117 28.4103 35.613 28.6804 35.6232C28.7088 35.624 29.0574 35.6347 29.0857 35.6352C29.2196 35.6387 29.3534 35.6372 29.4874 35.6384C29.7575 35.6391 30.0279 35.6374 30.2991 35.6418C30.3556 35.6392 31.0541 35.62 31.1115 35.6183L31.5195 35.6123C31.655 35.6034 31.7903 35.5927 31.9265 35.5867C32.1983 35.5718 32.4716 35.558 32.7473 35.552C32.4841 35.6253 32.2181 35.6909 31.9511 35.7553ZM32.0022 36.9935C31.8775 37.027 31.7516 37.0557 31.6259 37.0863L31.2455 37.156C31.1697 37.1752 30.5566 37.2647 30.4799 37.2817C30.2231 37.31 29.9655 37.3329 29.7076 37.3574C29.5787 37.3681 29.4495 37.3806 29.3203 37.3885C29.2812 37.3922 28.9716 37.4017 28.9324 37.4044C28.6737 37.4131 28.4145 37.422 28.1555 37.4206C28.0771 37.4214 27.4573 37.4054 27.3789 37.4017C27.2495 37.3979 27.1202 37.39 26.9911 37.3803C26.952 37.3772 26.643 37.3552 26.6041 37.351C25.5725 37.2653 24.5471 37.111 23.5416 36.8751C23.2907 36.8142 23.0402 36.753 22.7911 36.6857C22.5429 36.6145 22.2949 36.5442 22.0493 36.4659C21.5588 36.3063 21.0738 36.1316 20.6054 35.9159C21.6206 36.0974 22.6255 36.2624 23.6325 36.4043C24.6393 36.5441 25.6466 36.6561 26.6551 36.738C27.1601 36.7848 27.6658 36.8098 28.1719 36.8371C28.425 36.8505 28.6782 36.8527 28.9315 36.8619C28.9694 36.863 29.274 36.8723 29.3119 36.8729C29.437 36.8762 29.5621 36.875 29.6874 36.8761C29.9406 36.8765 30.1944 36.8751 30.4488 36.8793C30.5242 36.8757 31.1346 36.8584 31.2109 36.856L31.5941 36.8502C31.7211 36.8415 31.8482 36.831 31.976 36.8251C32.2315 36.8106 32.4878 36.7972 32.7473 36.7915C32.5012 36.8644 32.2523 36.9295 32.0022 36.9935ZM32.0534 38.2318C31.9371 38.2649 31.8198 38.2935 31.7025 38.324L31.3472 38.3935C31.2526 38.4176 30.7277 38.4978 30.6317 38.519C30.3917 38.5473 30.1506 38.5709 29.9093 38.5953C29.7886 38.6062 29.6678 38.6181 29.5469 38.6261C29.498 38.6308 29.2327 38.6398 29.1838 38.6432C28.9415 38.6526 28.6988 38.6611 28.4564 38.6602C28.3582 38.6615 27.827 38.648 27.7291 38.6435C27.6079 38.6396 27.487 38.6321 27.3662 38.6229C27.3173 38.6192 27.0524 38.6 27.0038 38.5947C26.0382 38.5121 25.079 38.3613 24.1402 38.1313C23.9059 38.072 23.6721 38.0119 23.4399 37.946C23.2083 37.8768 22.9772 37.8076 22.7485 37.731C22.2916 37.5753 21.8411 37.4033 21.4066 37.193C22.3561 37.3662 23.2944 37.5246 24.2348 37.6608C25.1748 37.7953 26.115 37.903 27.0564 37.9819C27.528 38.0266 28.0004 38.0515 28.4732 38.0769C28.7095 38.0894 28.946 38.0924 29.1828 38.1008C29.2299 38.1021 29.4907 38.1099 29.5381 38.1106C29.6544 38.1136 29.7709 38.1129 29.8873 38.1138C30.1238 38.1138 30.3607 38.1129 30.5985 38.1166C30.6928 38.1122 31.2152 38.0967 31.3103 38.0939L31.6687 38.0881C31.7875 38.0796 31.9061 38.0693 32.0256 38.0637C32.2645 38.0494 32.5044 38.0364 32.7473 38.0311C32.5183 38.1035 32.2865 38.1682 32.0534 38.2318ZM32.1045 39.47C31.9968 39.503 31.888 39.5313 31.7791 39.5616L31.449 39.631C31.3353 39.6599 30.8988 39.7309 30.7837 39.7563C30.5602 39.7846 30.3359 39.8089 30.1112 39.8334C29.9987 39.8443 29.8862 39.8556 29.7734 39.8637C29.7148 39.8692 29.4939 39.8779 29.4352 39.8819C29.2094 39.8921 28.9832 39.9001 28.7572 39.9C28.6395 39.9015 28.197 39.8907 28.0794 39.8851C27.9665 39.8813 27.8537 39.8743 27.7412 39.8658C27.6825 39.8614 27.4619 39.8448 27.4035 39.8384C26.5038 39.759 25.6109 39.6117 24.7387 39.3875C24.5211 39.3299 24.3041 39.2708 24.0886 39.2062C23.8737 39.1393 23.6594 39.0711 23.4476 38.996C23.0245 38.8443 22.6082 38.675 22.2079 38.4701C23.0918 38.635 23.9634 38.7867 24.8371 38.9173C25.7103 39.0467 26.5835 39.15 27.4577 39.2258C27.8961 39.2683 28.335 39.2936 28.7744 39.3168C28.994 39.3283 29.2139 39.3322 29.434 39.3396C29.4906 39.3411 29.7074 39.3475 29.7642 39.3485C29.8718 39.3509 29.9795 39.3507 30.0873 39.3515C30.307 39.3512 30.5272 39.3506 30.7482 39.354C30.8612 39.3487 31.2955 39.335 31.41 39.3316L31.7434 39.3261C31.8536 39.3178 31.9641 39.3076 32.0754 39.3023C32.2975 39.2884 32.5209 39.2757 32.7473 39.2707C32.5356 39.3426 32.3206 39.4069 32.1045 39.47ZM32.1558 40.7083C32.0563 40.741 31.9561 40.7692 31.8557 40.7992L31.5508 40.8685C31.4182 40.9022 31.0701 40.964 30.9358 40.9936C30.7288 41.0219 30.5211 41.0469 30.3129 41.0714C30.2087 41.0822 30.1045 41.0931 30 41.1013C29.9316 41.1078 29.755 41.116 29.6864 41.1206C29.4773 41.1313 29.2676 41.1392 29.0581 41.1398C28.9207 41.1416 28.5669 41.1333 28.4297 41.1269C28.325 41.123 28.2205 41.1166 28.1161 41.1086C28.0477 41.1033 27.8714 41.0895 27.8032 41.0821C26.9695 41.0058 26.1428 40.862 25.3372 40.6437C25.1364 40.5878 24.9361 40.5296 24.7375 40.4663C24.5391 40.4016 24.3419 40.3345 24.1467 40.2613C23.7572 40.1133 23.3753 39.9466 23.0091 39.747C23.8274 39.9037 24.6325 40.0489 25.4394 40.1738C26.2458 40.298 27.0519 40.3969 27.8591 40.4697C28.2641 40.5101 28.6695 40.5354 29.0756 40.5567C29.2787 40.5671 29.4818 40.5719 29.6851 40.5784C29.7512 40.5802 29.9242 40.585 29.9903 40.5862C30.0894 40.5883 30.1883 40.5884 30.2873 40.5894C30.4902 40.5885 30.6936 40.5883 30.8981 40.5915C31.0299 40.5852 31.3762 40.5734 31.5096 40.5693L31.8179 40.5639C31.92 40.5559 32.0218 40.5459 32.1249 40.5407C32.3304 40.5274 32.5374 40.5149 32.7473 40.5103C32.5529 40.5816 32.355 40.6456 32.1558 40.7083ZM32.207 41.9465C32.1161 41.9791 32.0243 42.007 31.9322 42.0368L31.6527 42.106C31.501 42.1446 31.2412 42.197 31.0876 42.231C30.8974 42.2593 30.7063 42.285 30.5147 42.3095C30.4188 42.3203 30.3227 42.3305 30.2265 42.3389C30.1484 42.3463 30.0162 42.354 29.9378 42.3593C29.7452 42.3708 29.552 42.3783 29.3588 42.3796C29.2019 42.3815 28.9366 42.3761 28.78 42.3687C28.6835 42.3646 28.5872 42.3586 28.4911 42.3513C28.4129 42.3453 28.2809 42.3344 28.2029 42.326C27.4351 42.2528 26.6747 42.1122 25.9357 41.8998C25.7516 41.8457 25.5681 41.7885 25.3862 41.7266C25.2044 41.6639 25.0241 41.598 24.846 41.5262C24.49 41.3821 24.1425 41.2183 23.8103 41.0242C24.563 41.1724 25.3015 41.311 26.0417 41.4304C26.7813 41.5494 27.5205 41.6439 28.2604 41.7137C28.632 41.7519 29.0041 41.7773 29.3768 41.7965C29.5632 41.8059 29.7497 41.8116 29.9364 41.8173C30.0119 41.8192 30.1409 41.8226 30.2165 41.8239C30.3067 41.8256 30.3969 41.8263 30.4872 41.827C30.6734 41.8259 30.8601 41.826 31.0477 41.8288C31.1982 41.8217 31.4567 41.8117 31.6091 41.8072L31.8927 41.8019C31.9863 41.794 32.0798 41.7843 32.1746 41.7791C32.3634 41.7662 32.5535 41.7543 32.7473 41.75C32.5699 41.8208 32.3891 41.8842 32.207 41.9465ZM32.2581 43.1848C32.1758 43.2171 32.0922 43.2449 32.0088 43.2745L31.7544 43.3434C31.5838 43.3869 31.4124 43.4301 31.2396 43.4683C31.066 43.4967 30.8915 43.5231 30.7164 43.5475C30.0159 43.634 29.304 43.6456 28.6027 43.5697C27.9009 43.4996 27.2066 43.3625 26.5343 43.1561C25.8644 42.9456 25.2077 42.6789 24.6115 42.3013C25.2986 42.4413 25.9706 42.5732 26.644 42.6868C27.3168 42.8006 27.9889 42.8908 28.6617 42.9575C29.3347 43.0295 30.0091 43.0592 30.6872 43.0647C30.8565 43.0632 31.0265 43.0637 31.1974 43.0662C31.3669 43.0582 31.5373 43.0501 31.7087 43.0449L31.9672 43.0399C32.0525 43.0321 32.1377 43.0226 32.224 43.0177C32.3963 43.005 32.5701 42.9936 32.7473 42.9894C32.5871 43.0599 32.4233 43.1229 32.2581 43.1848ZM45.5209 33.423C45.8466 33.2121 46.2569 33.0947 46.6443 33.0947C47.0908 33.0947 47.5069 33.2506 47.7282 33.5995C48.146 34.258 47.6717 35.2857 46.9852 35.7305C46.269 36.1943 45.358 36.0543 44.9542 35.418C44.5506 34.7819 44.8048 33.8869 45.5209 33.423ZM53.1389 44.2277C52.9047 43.9787 52.6682 43.8144 52.4364 43.6712C51.9717 43.389 51.5152 43.2017 51.0585 43.0308C50.1457 42.7017 49.2346 42.4803 48.323 42.2864C46.4991 41.9108 44.6716 41.6826 42.8428 41.519C41.9472 41.4405 41.0514 41.3809 40.1557 41.3354C41.3991 40.3116 42.471 39.0833 43.3214 37.7012C43.6966 37.9546 44.9614 36.7992 47.6012 37.3576C47.7887 37.3974 47.9872 37.3566 48.1387 37.2381C49.6194 36.0788 50.3687 33.6674 49.4847 32.2742C48.7043 31.0442 46.9422 30.8717 45.4222 31.4708C45.4708 30.9833 45.4957 30.4888 45.4957 29.9884C45.4957 28.8363 45.4951 28.3288 45.2403 28.2068C45.2518 28.2624 45.2521 28.3097 45.2521 28.3465C45.2521 28.6134 45.2521 29.4257 40.9057 30.0693C38.2257 30.4661 34.665 30.6846 30.8797 30.6846C27.0903 30.6846 23.5178 30.4661 20.8204 30.0693C17.789 29.6234 16.8559 29.0974 16.5685 28.7272C16.534 29.0057 16.5336 29.4139 16.5336 29.9884C16.5336 34.9009 18.9302 39.2477 22.6062 41.9011C22.0593 41.9619 21.5128 42.0257 20.967 42.0951C19.1604 42.3296 17.3581 42.6087 15.5813 43.0119C14.6935 43.2141 13.8121 43.4517 12.957 43.7671C12.5314 43.9285 12.1095 44.1073 11.7206 44.3472C11.5268 44.4672 11.3404 44.6031 11.1849 44.7715C11.0286 44.9356 10.9063 45.1496 10.9045 45.3823C10.9077 45.1496 11.0308 44.9371 11.1876 44.7741C11.3437 44.607 11.5304 44.4724 11.7245 44.3538C12.1141 44.1165 12.5363 43.9402 12.9622 43.7817C13.8182 43.4713 14.7044 43.2559 15.5931 43.0669C17.3743 42.6995 19.1808 42.4733 20.99 42.3117C21.6567 42.2547 22.324 42.2093 22.9915 42.1692C23.5429 42.5407 24.1207 42.8756 24.7219 43.1691C24.3486 43.2397 23.9763 43.3155 23.6067 43.4032C23.1566 43.5091 22.7106 43.6351 22.2771 43.7963C22.0613 43.8787 21.8474 43.9702 21.6502 44.0925C21.552 44.1537 21.4575 44.2229 21.3787 44.3087C21.2995 44.3922 21.2378 44.5012 21.2372 44.6192C21.2391 44.5012 21.3018 44.3935 21.3815 44.3114C21.4609 44.2269 21.5557 44.159 21.6542 44.099C21.8519 43.9794 22.0661 43.8906 22.2823 43.8108C22.7168 43.6547 23.1673 43.5509 23.6185 43.4583C24.0439 43.3747 24.4723 43.3085 24.9023 43.2546C26.7595 44.1295 28.8303 44.6192 31.0147 44.6192C32.9254 44.6192 34.7493 44.2445 36.4194 43.5652C36.7233 43.6051 37.0269 43.6464 37.3289 43.6911C38.2252 43.8258 39.1175 43.9786 39.9751 44.1838C40.4023 44.2846 40.8231 44.4047 41.2 44.5472C41.2604 44.5701 41.3191 44.5942 41.3765 44.6187C41.319 44.6433 41.2601 44.6676 41.1997 44.6904C40.822 44.8301 40.4021 44.9523 39.9747 45.0524C39.1169 45.2561 38.2248 45.4087 37.3287 45.5432C36.431 45.675 35.5252 45.7863 34.6153 45.8793C33.7054 45.9733 32.7913 46.0502 31.8745 46.104C30.0414 46.211 28.1968 46.2485 26.359 46.122C25.4406 46.0584 24.5232 45.9571 23.6185 45.7798C23.1675 45.6872 22.7168 45.5834 22.2823 45.4274C22.0661 45.3476 21.8519 45.2589 21.6542 45.1392C21.5557 45.0793 21.4609 45.0114 21.3815 44.927C21.302 44.8448 21.2391 44.7372 21.2372 44.6192C21.2378 44.7372 21.2995 44.846 21.3787 44.9296C21.4575 45.0153 21.552 45.0846 21.6502 45.1459C21.8474 45.2682 22.0612 45.3595 22.277 45.442C22.7105 45.6035 23.1565 45.7294 23.6066 45.8354C24.5068 46.0491 25.4199 46.2041 26.3358 46.3413C27.2521 46.4758 28.1727 46.5881 29.0961 46.682C30.0194 46.7776 30.9459 46.8542 31.8745 46.9081C33.7317 47.0152 35.5995 47.051 37.4745 46.92C38.4124 46.8538 39.3509 46.7498 40.2979 46.5627C40.7718 46.4645 41.2483 46.3568 41.7386 46.179C41.9856 46.0869 42.2342 45.9871 42.5071 45.8225C42.6433 45.738 42.7882 45.6403 42.9456 45.474C43.0226 45.3918 43.1053 45.2878 43.1769 45.1444C43.2478 45.0044 43.3039 44.8176 43.303 44.6192C43.303 44.4208 43.2469 44.2341 43.1762 44.0942C43.1047 43.951 43.0221 43.847 42.945 43.7649C42.7878 43.5985 42.6429 43.5008 42.5068 43.4165C42.2339 43.2519 41.9853 43.1521 41.7384 43.0599C41.2472 42.885 40.7715 42.7753 40.2978 42.6776C39.9831 42.6159 39.6695 42.564 39.3566 42.5188C40.4738 42.6235 41.5881 42.7453 42.6977 42.8879C44.4849 43.1201 46.2664 43.3973 48.0006 43.7926C48.8653 43.9896 49.7216 44.2213 50.5201 44.518C50.915 44.6669 51.3024 44.8347 51.6163 45.0298C51.7723 45.1252 51.9089 45.2314 51.9863 45.3179C52.0096 45.34 52.0189 45.3575 52.0347 45.3749C52.0358 45.3772 52.0374 45.3792 52.0387 45.3815C52.0371 45.384 52.0353 45.3865 52.0341 45.3891C52.0183 45.4062 52.009 45.424 51.9857 45.4459C51.9084 45.5324 51.772 45.6387 51.6159 45.734C51.3021 45.929 50.9146 46.0968 50.5199 46.2457C49.7206 46.5397 48.8651 46.7733 48.0001 46.9699C46.2658 47.3635 44.4844 47.6405 42.6975 47.8726C40.9086 48.1003 39.1089 48.2844 37.3032 48.4136C35.498 48.5483 33.6876 48.6464 31.8745 48.7001C30.6293 48.7361 29.383 48.754 28.1364 48.7508C22.5391 45.2542 17.9826 42.9463 14.4947 44.5216C13.7003 44.8803 13.2303 46.8287 16.8631 46.4973C18.9311 46.3087 21.6839 46.7181 26.2035 48.7271C24.4644 48.6827 22.7247 48.604 20.9902 48.4515C19.1809 48.2903 17.3744 48.0644 15.5931 47.6973C14.7044 47.5084 13.8183 47.2929 12.9622 46.9828C12.5363 46.8242 12.1141 46.6479 11.7245 46.4107C11.5304 46.2921 11.3437 46.1574 11.1876 45.9903C11.0308 45.8275 10.9077 45.6149 10.9045 45.3823C10.9063 45.6149 11.0286 45.829 11.1849 45.993C11.3404 46.1614 11.5268 46.2973 11.7204 46.4173C12.1095 46.6572 12.5314 46.8361 12.957 46.9973C13.812 47.313 14.6935 47.5506 15.5813 47.7528C17.358 48.1565 19.1602 48.436 20.967 48.6705C22.7744 48.9018 24.5891 49.0857 26.4081 49.2161C26.7452 49.2414 27.0826 49.2639 27.42 49.2866C27.8117 49.4724 28.2141 49.6682 28.6308 49.8768C33.0172 52.0724 34.0797 53.1981 36.7081 55.335C42.9357 60.3973 45.6052 54.5729 41.3509 51.9837C38.0308 49.963 34.914 52.8687 29.1625 49.3923C30.0659 49.4398 30.9699 49.4773 31.8745 49.504C35.5243 49.6128 39.1849 49.5632 42.8432 49.2493C43.7575 49.1667 44.6721 49.0721 45.5853 48.9441C46.4984 48.8174 47.4121 48.6735 48.3234 48.4802C49.2349 48.2855 50.1469 48.0662 51.0587 47.7343C51.5155 47.5634 51.9721 47.3761 52.4369 47.0939C52.6685 46.9508 52.9052 46.7864 53.1395 46.5373C53.2553 46.4143 53.3722 46.2646 53.4685 46.0704C53.5645 45.8802 53.6364 45.6375 53.6356 45.3823C53.6354 45.1268 53.5638 44.8846 53.4678 44.6944C53.3715 44.5003 53.2546 44.3507 53.1389 44.2277Z" fill="#3F966C"/>
</svg>
