<svg width="110" height="100" viewBox="0 0 110 100" fill="none" xmlns="http://www.w3.org/2000/svg">
<path d="M58.1167 96.0163C59.3727 97.5133 58.9583 98.5579 58.775 98.8346C58.5667 99.1496 57.4523 99.5132 56.7645 98.1975C56.2383 97.1909 56.067 95.8044 55.1639 95.5265C54.282 95.2552 54.5236 94.925 55.1015 94.7478C55.7479 94.5499 57.0589 94.7554 58.1167 96.0163ZM57.4139 99.9372C56.7665 100.132 55.4566 99.9195 54.4052 98.6531C53.1568 97.1497 53.5768 96.1072 53.7611 95.8315C53.9712 95.5175 55.0875 95.1596 55.7686 96.4792C56.2895 97.4885 56.4539 98.8756 57.3556 99.1582C58.2361 99.4341 57.9929 99.7633 57.4139 99.9372ZM47.9977 90.3626C48.405 90.9071 48.6666 92.2212 47.8605 93.6595C46.9034 95.3672 45.7899 95.335 45.4696 95.2566C45.105 95.1676 44.3825 94.2365 45.3675 93.1302C46.121 92.2839 47.3496 91.6428 47.296 90.6903C47.2436 89.7606 47.6338 89.8757 47.9977 90.3626ZM44.6791 94.0223C44.7268 94.9525 44.337 94.8354 43.9755 94.3466C43.5711 93.7998 43.3162 92.4843 44.1296 91.0503C45.0955 89.3475 46.2085 89.3859 46.5286 89.4657C46.8926 89.5563 47.6104 90.4912 46.6198 91.5925C45.8622 92.4349 44.6302 93.0697 44.6791 94.0223ZM109.176 86.02C107.985 87.5698 106.888 87.3749 106.582 87.251C106.234 87.1095 105.652 86.0824 106.786 85.132C107.652 84.4047 108.96 83.9498 109.043 82.9996C109.124 82.0719 109.494 82.2427 109.784 82.7776C110.11 83.3761 110.18 84.7144 109.176 86.02ZM105.977 85.914C105.891 86.8412 105.522 86.6686 105.234 86.132C104.912 85.5319 104.848 84.1932 105.858 82.8931C107.058 81.3493 108.154 81.5497 108.459 81.6754C108.806 81.8184 109.383 82.8486 108.245 83.7933C107.374 84.5163 106.065 84.9642 105.977 85.914ZM98.8223 74.5481C99.1475 75.1465 99.2181 76.485 98.2143 77.7905C97.0229 79.34 95.9259 79.1453 95.62 79.0213C95.272 78.8799 94.6904 77.8528 95.8236 76.9024C96.6902 76.1749 97.9979 75.7202 98.0809 74.7698C98.1621 73.8423 98.532 74.0132 98.8223 74.5481ZM94.272 77.9025C93.9503 77.3023 93.8861 75.9637 94.8965 74.6633C96.096 73.1198 97.1918 73.3201 97.4971 73.4459C97.8444 73.5888 98.4206 74.619 97.2827 75.5637C96.4125 76.2867 95.1025 76.7346 95.0146 77.6844C94.9285 78.6117 94.5597 78.4388 94.272 77.9025ZM85.9815 93.5469C86.3065 94.1454 86.3772 95.4837 85.3735 96.7893C84.1819 98.3391 83.0849 98.1442 82.779 98.0201C82.431 97.8788 81.8496 96.8517 82.9826 95.901C83.8494 95.174 85.1569 94.7191 85.2402 93.7688C85.3214 92.8412 85.691 93.012 85.9815 93.5469ZM82.1736 96.6833C82.0876 97.6103 81.7189 97.4378 81.4313 96.9011C81.1093 96.3012 81.0452 94.9623 82.0557 93.6622C83.255 92.1186 84.3508 92.319 84.6561 92.4447C85.0035 92.5877 85.5798 93.6179 84.442 94.5626C83.5715 95.2853 82.2615 95.7335 82.1736 96.6833ZM96.8759 83.9176C97.2007 84.516 97.2716 85.8543 96.2677 87.1598C95.0761 88.7095 93.9793 88.5148 93.6734 88.3906C93.3252 88.2494 92.7439 87.2223 93.8768 86.2715C94.7436 85.5442 96.0511 85.0897 96.1344 84.1393C96.2158 83.2116 96.5854 83.3825 96.8759 83.9176ZM93.068 87.0539C92.982 87.981 92.6133 87.8081 92.3255 87.2717C92.0035 86.6716 91.9396 85.333 92.9499 84.0326C94.1492 82.4893 95.2452 82.6896 95.5503 82.8154C95.8977 82.9583 96.474 83.9883 95.3364 84.9332C94.4657 85.656 93.1559 86.1041 93.068 87.0539ZM80.6783 83.8076C79.9136 83.2871 80.2405 83.043 80.8444 83.0447C81.52 83.0465 82.7138 83.6308 83.36 85.1496C84.1267 86.9526 83.4276 87.8286 83.1724 88.039C82.8817 88.2786 81.7108 88.2964 81.4345 86.8349C81.2234 85.7169 81.4613 84.3405 80.6783 83.8076ZM81.5512 88.6906C80.8757 88.6853 79.6848 88.0948 79.0464 86.5728C78.2888 84.7657 78.9922 83.8934 79.2488 83.6842C79.5405 83.446 80.7116 83.4342 80.9804 84.8973C81.186 86.0163 80.9408 87.3915 81.7213 87.9285C82.4832 88.4527 82.1552 88.6955 81.5512 88.6906ZM16.4653 90.9012C16.7325 91.5279 16.6768 92.867 15.5547 94.0703C14.2226 95.4984 13.1489 95.1992 12.8562 95.0462C12.5231 94.8721 12.0409 93.7937 13.2583 92.9562C14.1895 92.3155 15.534 91.9884 15.7065 91.0507C15.8748 90.1349 16.2266 90.3406 16.4653 90.9012ZM12.3793 93.6571C12.2064 94.5718 11.8556 94.3645 11.6197 93.8027C11.3558 93.1745 11.4181 91.8356 12.5464 90.6384C13.8856 89.2173 14.9578 89.5221 15.2498 89.6765C15.5821 89.8523 16.0587 90.9332 14.8371 91.7642C13.9026 92.4 12.5563 92.7202 12.3793 93.6571ZM26.6228 88.3616C26.9531 88.957 27.0355 90.2949 26.0433 91.6092C24.8655 93.1695 23.7668 92.9848 23.4599 92.8633C23.1107 92.7251 22.5202 91.7033 23.6448 90.7424C24.5049 90.0073 25.8086 89.541 25.8835 88.5899C25.9566 87.6616 26.3277 87.8292 26.6228 88.3616ZM22.8428 91.532C22.765 92.4599 22.3945 92.2903 22.102 91.7564C21.775 91.1594 21.6993 89.8213 22.698 88.512C23.8838 86.9577 24.9816 87.1483 25.2879 87.2711C25.6365 87.4112 26.2217 88.4361 25.0922 89.391C24.2282 90.1216 22.9224 90.5814 22.8428 91.532ZM4.60077 84.9601C5.78832 86.5129 5.32772 87.5373 5.13223 87.8056C4.90974 88.1108 3.78025 88.423 3.15217 87.0771C2.67166 86.0475 2.56245 84.6547 1.6727 84.336C0.803855 84.0246 1.06005 83.7057 1.6453 83.5552C2.29997 83.3868 3.60039 83.652 4.60077 84.9601ZM3.7232 88.8448C3.06751 89.01 1.76852 88.738 0.774831 87.4245C-0.404803 85.8658 0.0610771 84.8434 0.257784 84.5763C0.481693 84.2724 1.61282 83.966 2.2342 85.3151C2.70942 86.347 2.81153 87.7404 3.69986 88.064C4.56687 88.3799 4.30906 88.6972 3.7232 88.8448ZM16.445 80.1887C17.6326 81.7417 17.172 82.7659 16.9765 83.0344C16.7542 83.3394 15.6245 83.652 14.9964 82.3059C14.5159 81.2763 14.4069 79.8835 13.5169 79.5646C12.6483 79.2534 12.9043 78.9345 13.4895 78.7838C14.1442 78.6156 15.4446 78.8808 16.445 80.1887ZM12.6193 82.6535C11.4394 81.0944 11.9053 80.0724 12.1022 79.8051C12.3259 79.5012 13.4571 79.1946 14.0784 80.5439C14.5537 81.576 14.6558 82.9694 15.5441 83.2928C16.4111 83.6085 16.1535 83.9262 15.5675 84.0734C14.9118 84.2385 13.613 83.9666 12.6193 82.6535ZM36.3126 87.1159C36.3677 89.0774 35.3981 89.6316 35.0841 89.7321C34.7264 89.8465 33.6314 89.4269 33.9081 87.9654C34.1198 86.8474 34.8433 85.6566 34.3098 84.8694C33.7889 84.1011 34.182 83.9957 34.7426 84.2221C35.3699 84.4754 36.2664 85.4636 36.3126 87.1159ZM33.7756 89.0889C34.2926 89.8597 33.8992 89.9632 33.3395 89.7337C32.7135 89.4772 31.8219 88.4845 31.7841 86.8322C31.7391 84.8703 32.7112 84.321 33.0261 84.2223C33.3842 84.1097 34.4769 84.5349 34.1929 85.995C33.9757 87.112 33.2461 88.2989 33.7756 89.0889ZM45.9251 29.609C46.4625 29.1672 47.1202 28.8101 47.8571 28.5642C47.9728 28.5257 48.0891 28.4906 48.2054 28.4572C47.9062 28.7767 47.6492 29.1367 47.4527 29.5253C46.9862 30.4319 46.8033 31.4463 46.7984 32.4361C46.7952 33.43 46.9718 34.4136 47.2854 35.3466C47.6376 36.3996 48.1719 37.3935 48.8585 38.2691C48.8032 38.2488 48.7478 38.2293 48.693 38.2061C48.5245 38.1421 48.3558 38.0761 48.1902 37.9959C48.0231 37.921 47.8556 37.8464 47.6908 37.7586C47.5252 37.6747 47.3522 37.5902 47.2129 37.5108C46.6291 37.182 46.1044 36.7778 45.6714 36.3048C45.2349 35.835 44.8772 35.3034 44.6375 34.7256C44.3983 34.1486 44.2753 33.5327 44.2741 32.9187C44.2816 31.693 44.8305 30.4755 45.9251 29.609ZM42.2098 39.1922C42.9138 40.1162 43.7682 40.8999 44.6955 41.5369C44.933 41.7014 45.1533 41.8331 45.3774 41.9709C45.5985 42.1126 45.8317 42.2383 46.0666 42.362C46.298 42.4908 46.539 42.6061 46.7826 42.7181C47.0225 42.8358 47.2722 42.9379 47.5233 43.0376C47.8358 43.1623 48.1553 43.2743 48.4799 43.3758C49.1979 43.6004 49.9429 43.7675 50.7054 43.8656C51.8135 43.9991 52.9546 43.9852 54.0817 43.8094C54.646 43.7163 55.2065 43.5815 55.756 43.4053C56.6987 43.1032 57.6092 42.6785 58.4549 42.1317C59.6272 41.9352 60.7642 41.5117 61.7784 40.8908C62.2029 40.6341 62.6014 40.336 62.9836 40.019C63.3604 39.6945 63.7126 39.3411 64.0398 38.9633C64.361 38.5802 64.6539 38.1712 64.9119 37.7372C65.1689 37.3024 65.3776 36.8356 65.5435 36.3502C66.1563 34.4235 66.1784 32.426 65.8794 30.5016C65.7227 29.5397 65.4789 28.5954 65.158 27.6809C64.8368 26.7661 64.4276 25.8869 63.9625 25.0439C63.0289 23.3578 61.8511 21.8264 60.519 20.4672C59.1993 19.0959 57.6878 17.9205 56.1614 16.8476C54.6342 15.7684 53.0902 14.7392 51.5923 13.655C50.0984 12.5694 48.651 11.417 47.3942 10.0808C46.7688 9.41216 46.1965 8.69227 45.7321 7.90592C45.2688 7.12081 44.9142 6.26719 44.7392 5.36824C44.5612 4.47032 44.5727 3.53426 44.7479 2.62506C44.9162 1.71278 45.2558 0.834136 45.6752 1.51146e-06C45.2051 0.805627 44.8072 1.66684 44.5772 2.5865C44.3452 3.5037 44.2847 4.47422 44.4213 5.423C44.5524 6.37405 44.887 7.29022 45.3376 8.13174C45.7887 8.97551 46.3524 9.75017 46.9695 10.4694C48.2115 11.9062 49.6601 13.1246 51.1333 14.2779C52.6079 15.4332 54.1395 16.4979 55.623 17.604C56.3672 18.1555 57.0919 18.7212 57.7842 19.3164C58.4805 19.9093 59.1368 20.5459 59.7661 21.2049C61.0214 22.5257 62.1152 23.9979 62.9676 25.5956C63.8192 27.1921 64.4335 28.9141 64.7101 30.6901C64.849 31.5769 64.8999 32.4759 64.8555 33.3654C64.8362 33.8104 64.7818 34.2516 64.7095 34.6872C64.636 35.1192 64.5323 35.5589 64.3959 35.9549C63.8433 37.5584 62.6286 38.9539 61.157 39.8594C61.0436 39.9295 60.928 39.9958 60.8111 40.0604C61.0099 39.8243 61.2003 39.579 61.3809 39.3231C61.7309 38.8152 62.0411 38.267 62.2948 37.6792L62.4747 37.2313L62.6282 36.7667L62.6649 36.65L62.6931 36.5471L62.7479 36.342C62.7859 36.2058 62.8184 36.0682 62.8488 35.9303C62.9757 35.3799 63.0677 34.8216 63.117 34.2612C63.3342 32.0181 62.9603 29.7616 62.1771 27.7685C61.4067 25.7595 60.2516 24.0098 58.9591 22.4804C58.3071 21.717 57.6104 21.0148 56.8928 20.3521C56.1748 19.6898 55.4336 19.0659 54.6614 18.4997C54.4714 18.353 54.2774 18.2142 54.0831 18.0763C53.8919 17.9408 53.6893 17.7927 53.5072 17.6682L52.414 16.9153C51.6842 16.4179 50.9654 15.9146 50.2612 15.399C48.8461 14.3772 47.4775 13.3154 46.2329 12.1588C45.6178 11.5755 45.022 10.9777 44.508 10.3285C43.9861 9.68536 43.5382 8.99848 43.222 8.25951C43.0669 7.89033 42.9408 7.5066 42.8746 7.11055C42.8003 6.71492 42.7758 6.30472 42.8154 5.88981C42.8779 5.05526 43.2025 4.21272 43.6615 3.42124C42.9568 3.99593 42.3448 4.75397 41.9841 5.68204C41.8044 6.14393 41.6909 6.6415 41.6455 7.14911C41.6004 7.65755 41.6311 8.1705 41.7037 8.67443C41.8606 9.68125 42.2143 10.6341 42.6489 11.5157C43.0929 12.3943 43.6064 13.2223 44.1738 13.9945C45.3037 15.5456 46.5901 16.9247 47.9137 18.2271C48.5808 18.8727 49.2578 19.5005 49.9382 20.1164C50.2785 20.4247 50.6254 20.7217 50.9691 21.0209L51.4508 21.4475C51.6089 21.5876 51.7673 21.7279 51.9183 21.8735C53.144 23.0247 54.2899 24.2233 55.2258 25.5216C56.1707 26.8072 56.9324 28.1686 57.3987 29.5588C57.8698 30.9475 58.046 32.3602 57.8936 33.7177C57.8569 34.0572 57.7964 34.3919 57.7196 34.7213C57.7012 34.8039 57.6817 34.8862 57.6577 34.967L57.6244 35.0892L57.6082 35.1495L57.5923 35.1936L57.5333 35.3721L57.4588 35.5515C57.3504 35.7903 57.2186 36.0317 57.0605 36.2681C56.8954 36.5015 56.7075 36.728 56.4998 36.9445C55.6539 37.809 54.47 38.4266 53.2015 38.6809C52.4266 38.8343 51.615 38.8559 50.7945 38.7502C49.6301 37.7746 48.7322 36.4646 48.1993 35.0201C47.8948 34.1886 47.7137 33.3086 47.6939 32.4285C47.6725 31.5509 47.8191 30.6681 48.1837 29.8941C48.5132 29.1834 49.0491 28.586 49.7253 28.2006C49.84 28.1967 49.9545 28.1953 50.0677 28.1996C50.7866 28.2252 51.482 28.4096 52.0468 28.8194C52.6099 29.2193 53.0498 29.8424 53.1901 30.5676C53.2615 30.9274 53.2623 31.3078 53.1712 31.6748C53.0799 32.0409 52.9004 32.393 52.6367 32.6945C52.3734 32.9968 52.0255 33.2415 51.6335 33.4203C51.2415 33.5992 50.8073 33.712 50.3605 33.7758C50.8069 33.8328 51.2715 33.8459 51.7354 33.7583C52.1996 33.6771 52.6647 33.4985 53.0754 33.2042C53.4881 32.9142 53.8389 32.5062 54.0713 32.0294C54.3062 31.5537 54.4304 31.0168 54.4365 30.4753C54.4434 29.6092 54.1564 28.7363 53.6472 28.0109C54.0124 28.2209 54.3324 28.516 54.5853 28.8663C55.0975 29.5717 55.3297 30.4897 55.2469 31.3774C55.2042 31.8214 55.0786 32.2601 54.8648 32.6541C54.6523 33.0489 54.3525 33.397 53.9919 33.6702C53.269 34.2264 52.3318 34.46 51.4102 34.4908C52.3308 34.5221 53.2977 34.3595 54.1013 33.8264C54.498 33.5602 54.8419 33.2054 55.0963 32.7907C55.352 32.3766 55.5165 31.9059 55.5908 31.4217C55.7394 30.4528 55.5272 29.4254 54.9826 28.5888C54.7104 28.1713 54.3502 27.8039 53.9227 27.5322C53.5703 27.307 53.1734 27.1548 52.7642 27.0726C52.0649 26.5067 51.2192 26.1348 50.3676 25.965C49.3122 25.7482 48.2539 25.7849 47.2515 25.9494C46.2479 26.1127 45.2116 26.4158 44.2416 26.9524C43.2764 27.4899 42.3813 28.2603 41.7013 29.2265C41.0168 30.1888 40.5748 31.3402 40.398 32.5232C40.2167 33.7085 40.3126 34.9274 40.64 36.0645C40.9664 37.2019 41.503 38.2719 42.2098 39.1922ZM28.2119 47.2442C28.2119 47.2405 28.2219 47.1061 28.5085 46.8924C29.1305 47.2959 30.263 47.778 31.0901 47.93C34.0675 46.4258 64.1998 47.9965 63.8492 47.9278C67.6047 47.93 66.3849 46.9088 64.4582 46.5606C62.6763 46.2384 47.0144 43.3588 31.7569 45.7365C32.5744 45.5535 33.5795 45.3667 34.8175 45.1848C39.2756 44.5289 45.1882 44.1677 51.4662 44.1677C57.7369 44.1677 63.6294 44.5289 68.0584 45.1846C74.5333 46.1434 74.6082 47.2333 74.6082 47.2442C74.6082 47.255 74.5333 48.3449 68.0584 49.3038C63.6294 49.9595 57.7369 50.3206 51.4662 50.3206C45.1882 50.3206 39.2756 49.9595 34.8175 49.3038C28.2874 48.3431 28.2119 47.255 28.2119 47.2442ZM58.2941 87.8153C58.9395 88.2453 59.5686 88.6966 60.1849 89.1601C60.8073 89.6156 61.4094 90.0929 62.0263 90.5459C62.6377 91.0056 63.2483 91.4625 63.8778 91.884C64.4994 92.3163 65.1401 92.714 65.8011 93.0559C66.4578 93.4046 67.1459 93.6821 67.8528 93.8343C68.559 93.9746 69.2925 93.9649 69.9796 93.7172C70.6747 93.4848 71.2811 92.9985 71.8218 92.4456C71.4232 93.1093 70.8665 93.7155 70.1386 94.0865C69.9534 94.1674 69.7722 94.2687 69.5732 94.3163L69.2778 94.404C69.178 94.4248 69.0767 94.4387 68.9754 94.4559C68.5692 94.5281 68.1579 94.5039 67.7527 94.4664C67.5521 94.4383 67.3528 94.4012 67.1537 94.363C66.9602 94.3091 66.7633 94.2605 66.5729 94.1975C66.1926 94.0701 65.8224 93.9206 65.462 93.7535C64.7461 93.4101 64.0733 92.9987 63.4235 92.5633C62.7827 92.1147 62.1613 91.6463 61.5578 91.1592C60.9601 90.6649 60.3653 90.1718 59.7902 89.6579C58.6242 88.648 57.5093 87.5995 56.2659 86.6794C56.9789 86.9834 57.6441 87.3938 58.2941 87.8153ZM34.6586 75.6964C33.481 75.2811 32.2833 74.9293 31.0639 74.6879C29.8457 74.4468 28.6057 74.3079 27.367 74.336C26.7485 74.3524 26.1293 74.4117 25.5266 74.5522C25.2258 74.6215 24.9276 74.7097 24.6458 74.8385C24.3675 74.9698 24.0959 75.1353 23.9037 75.3892C24.0592 75.1096 24.3216 74.9015 24.5967 74.7423C24.8738 74.5817 25.1714 74.4609 25.4743 74.3592C26.0839 74.1672 26.7166 74.0622 27.351 74.0177C28.622 73.9223 29.897 74.0474 31.1422 74.2857C31.7634 74.4143 32.3781 74.5712 32.9849 74.7542C33.5894 74.9441 34.1862 75.1562 34.7715 75.3972C35.9414 75.8796 37.0644 76.4692 38.1297 77.144C36.9886 76.6093 35.8326 76.123 34.6586 75.6964ZM52.9958 53.4008C52.7311 53.458 52.4652 53.5073 52.1994 53.5598L51.3968 53.6767L49.7866 53.8873C49.2478 53.9345 48.7076 53.9677 48.1675 54.0085C47.8975 54.0266 47.6271 54.0514 47.3567 54.0635L46.5449 54.0823C46.0037 54.0926 45.4617 54.1092 44.9203 54.1018L43.2965 54.0579C43.0255 54.052 42.7555 54.0356 42.4855 54.0151L41.6753 53.9599C39.5164 53.7964 37.3658 53.5165 35.2457 53.0837C34.7165 52.9713 34.1868 52.8626 33.66 52.7414C33.1353 52.6081 32.6095 52.484 32.0876 52.3425C31.0464 52.0509 30.0089 51.7414 29.0008 51.3461C31.1303 51.7038 33.249 52.0228 35.3721 52.297C37.4957 52.5648 39.6211 52.7804 41.7496 52.9373C42.8133 53.0294 43.8791 53.0702 44.9448 53.1295C45.4779 53.1584 46.0112 53.1563 46.5447 53.1781L47.3453 53.2033C47.6122 53.2111 47.879 53.2064 48.1459 53.2086C48.68 53.2115 49.2143 53.207 49.7498 53.2162L51.3544 53.175L52.1597 53.1643C52.427 53.1485 52.6942 53.1297 52.9625 53.1186C53.4993 53.0917 54.037 53.0669 54.5788 53.0552C54.0543 53.1799 53.526 53.2915 52.9958 53.4008ZM53.0811 55.4647C52.8306 55.5215 52.5788 55.5703 52.3269 55.6224L51.5665 55.7391C51.5352 55.7471 50.0718 55.9424 50.0397 55.9496C49.5288 55.9967 49.0164 56.0312 48.5038 56.072C48.2474 56.0898 47.9908 56.1136 47.7343 56.1262C47.718 56.1278 46.9801 56.1458 46.9639 56.1469C46.4501 56.1584 45.9357 56.1746 45.4217 56.1682C45.389 56.1686 43.9128 56.129 43.8801 56.1274C43.6231 56.1214 43.3665 56.1056 43.1103 56.0866C43.0941 56.0853 42.3578 56.0345 42.3416 56.0328C40.2925 55.8747 38.2523 55.6003 36.2432 55.1776C35.7418 55.0676 35.2402 54.9608 34.7414 54.8418C34.2443 54.7122 33.7467 54.5898 33.253 54.4509C32.2677 54.1658 31.2874 53.8608 30.3363 53.4746C32.3564 53.8186 34.3638 54.1264 36.376 54.3912C38.3881 54.6503 40.4019 54.8586 42.4185 55.0106C43.4268 55.099 44.4367 55.14 45.447 55.196C45.9521 55.2231 46.4576 55.2225 46.9635 55.2428C46.9791 55.2432 47.7064 55.2662 47.7223 55.2664C47.9746 55.2736 48.2267 55.2695 48.4793 55.2715C48.9853 55.274 49.4916 55.2699 49.9993 55.2785C50.0308 55.277 51.4885 55.2389 51.5202 55.2379L52.2839 55.2274C52.5376 55.212 52.791 55.1934 53.0453 55.1827C53.5541 55.1564 54.0646 55.1324 54.5788 55.1212C54.0829 55.245 53.5829 55.3558 53.0811 55.4647ZM53.1663 57.5284C52.93 57.5848 52.6921 57.633 52.4546 57.6851L51.7362 57.8016C51.6733 57.8176 50.357 57.9975 50.2931 58.0118C49.8097 58.059 49.3252 58.0945 48.84 58.1355C48.5974 58.1533 48.3548 58.1761 48.1118 58.189C48.0794 58.1919 47.4153 58.2093 47.3829 58.2114C46.8967 58.2239 46.4095 58.2395 45.9231 58.2346C45.8577 58.2354 44.5293 58.2001 44.4639 58.197C44.2205 58.1909 43.9779 58.1759 43.7353 58.1579C43.7029 58.1552 43.0401 58.1092 43.0076 58.1058C41.0685 57.9528 39.1388 57.6841 37.241 57.2712C36.7672 57.1642 36.2936 57.0589 35.8226 56.942C35.3533 56.8163 34.8839 56.6955 34.4182 56.5595C33.4889 56.2808 32.5661 55.9803 31.6717 55.6029C33.5823 55.9332 35.4789 56.2301 37.3798 56.4853C39.2807 56.7357 41.1828 56.9369 43.0874 57.0838C44.0401 57.1687 44.9944 57.2099 45.9491 57.2624C46.4263 57.288 46.9042 57.2886 47.382 57.3073C47.4135 57.3083 48.0678 57.3286 48.0992 57.3291C48.337 57.3356 48.5747 57.3323 48.8126 57.3344C49.2907 57.3362 49.7691 57.3327 50.2488 57.3407C50.3117 57.3379 51.6229 57.3028 51.6863 57.3007L52.4083 57.2907C52.6477 57.2755 52.8872 57.2573 53.1282 57.247C53.6091 57.2214 54.092 57.1978 54.5788 57.1873C54.1115 57.3102 53.6397 57.4203 53.1663 57.5284ZM53.2518 59.5921C53.0295 59.6481 52.8058 59.6965 52.5823 59.7478L51.9061 59.8641C51.8111 59.8883 50.6424 60.0528 50.5464 60.0739C50.0907 60.1211 49.6337 60.158 49.1764 60.1988C48.9476 60.2168 48.7186 60.2386 48.4894 60.2515C48.4407 60.2562 47.8506 60.2728 47.8016 60.2761C47.3431 60.2896 46.8835 60.3048 46.4245 60.3009C46.3262 60.3022 45.1456 60.2712 45.0477 60.2667C44.8182 60.2605 44.5892 60.2464 44.3602 60.2291C44.3115 60.2252 43.7226 60.184 43.6738 60.1787C41.8446 60.0308 40.0253 59.7679 38.2385 59.3649C37.7925 59.2607 37.3469 59.1571 36.9038 59.0424C36.4625 58.9202 36.0209 58.8012 35.5837 58.6679C34.7102 58.3956 33.8446 58.0998 33.007 57.7312C34.8084 58.0477 36.594 58.3336 38.3837 58.5795C40.1731 58.8213 41.9636 59.0152 43.7563 59.1569C44.6533 59.2383 45.552 59.2797 46.4511 59.3288C46.9007 59.3528 47.3506 59.355 47.8006 59.372C47.8479 59.3733 48.4289 59.3911 48.4762 59.3919C48.6993 59.3979 48.9224 59.3954 49.1457 59.3973C49.5958 59.3985 50.0464 59.3956 50.4985 59.403C50.5927 59.3987 51.7569 59.3667 51.8525 59.3638L52.5326 59.3538C52.7583 59.339 52.9838 59.3212 53.2108 59.3111C53.6639 59.2863 54.1194 59.2633 54.5788 59.2533C54.1401 59.3755 53.6968 59.4848 53.2518 59.5921ZM53.3371 61.6558C53.1292 61.7116 52.9193 61.7596 52.7098 61.8104L52.0758 61.9267C51.9495 61.9587 50.9276 62.1078 50.7998 62.1361C50.3718 62.1833 49.9425 62.2215 49.5127 62.2623C49.2978 62.2801 49.0826 62.301 48.8672 62.3142C48.802 62.3203 48.286 62.3361 48.2206 62.3406C47.7895 62.3552 47.3575 62.37 46.9259 62.3677C46.7952 62.3689 45.7621 62.3423 45.6316 62.3361C45.4158 62.3298 45.2004 62.3166 44.9852 62.3004C44.9201 62.2953 44.405 62.2586 44.3401 62.2516C42.6209 62.1089 40.9118 61.8517 39.2361 61.4585C38.8179 61.357 38.4003 61.255 37.9852 61.1429C37.5715 61.0241 37.1581 60.907 36.7489 60.7765C35.9314 60.5105 35.1231 60.2193 34.3423 59.8598C36.0343 60.1623 37.7091 60.4373 39.3875 60.6738C41.0655 60.9068 42.7443 61.0934 44.4251 61.23C45.2668 61.308 46.1096 61.3496 46.9531 61.3951C47.3749 61.4175 47.797 61.4212 48.2192 61.4366C48.2823 61.4384 48.7901 61.4538 48.8532 61.4548C49.0617 61.4603 49.2701 61.4583 49.479 61.4601C49.9011 61.4608 50.3239 61.4585 50.748 61.4655C50.8736 61.4595 51.8911 61.4306 52.0182 61.4267L52.6568 61.4171C52.8685 61.4025 53.0803 61.3851 53.2934 61.3752C53.7191 61.351 54.1464 61.3287 54.5788 61.3192C54.1687 61.4407 53.7538 61.5492 53.3371 61.6558ZM53.4223 63.7197C53.2284 63.7749 53.033 63.8225 52.8375 63.8733L52.2453 63.9892C52.0876 64.0294 51.2129 64.1629 51.0529 64.1984C50.6528 64.2456 50.251 64.2848 49.8489 64.3256C49.6477 64.3436 49.4464 64.3635 49.2448 64.3768C49.1634 64.3846 48.7212 64.3996 48.6396 64.4053C48.2359 64.4209 47.8313 64.4351 47.4273 64.4337C47.2637 64.4359 46.3784 64.4133 46.2152 64.4058C46.0132 64.3994 45.8116 64.3869 45.6103 64.3715C45.5289 64.3654 45.0873 64.3334 45.0063 64.3245C43.3969 64.1869 41.7983 63.9355 40.2336 63.5521C39.8432 63.4533 39.4535 63.3532 39.0665 63.2433C38.6804 63.128 38.2954 63.0127 37.9141 62.885C37.1527 62.6255 36.4018 62.3388 35.6777 61.9883C37.2603 62.277 38.824 62.541 40.3913 62.7681C41.9581 62.9922 43.525 63.1717 45.094 63.3032C45.88 63.3776 46.6673 63.4192 47.4553 63.4615C47.8491 63.4824 48.2434 63.4873 48.638 63.5013C48.7166 63.5035 49.1512 63.5165 49.2302 63.5177C49.424 63.5226 49.6181 63.5216 49.8122 63.523C50.2064 63.523 50.6012 63.5216 50.9975 63.5277C51.1546 63.5204 52.0253 63.4945 52.1838 63.4898L52.7812 63.4802C52.9792 63.466 53.1769 63.4488 53.376 63.4395C53.7741 63.4157 54.174 63.394 54.5788 63.3852C54.1972 63.5058 53.8109 63.6137 53.4223 63.7197ZM53.5076 65.7834C53.3279 65.8384 53.1466 65.8855 52.9652 65.936L52.415 66.0517C52.2254 66.0999 51.4981 66.2182 51.3062 66.2605C50.9337 66.3076 50.5598 66.3482 50.1853 66.3891C49.9979 66.4071 49.8103 66.426 49.6224 66.4395C49.5247 66.4487 49.1565 66.4631 49.0586 66.4699C48.6823 66.4869 48.3053 66.5002 47.9287 66.5C47.7324 66.5025 46.9949 66.4844 46.799 66.4752C46.6108 66.4688 46.4229 66.4572 46.2353 66.443C46.1375 66.4356 45.7698 66.4079 45.6726 66.3973C44.173 66.265 42.6848 66.0195 41.2311 65.6458C40.8686 65.5498 40.5068 65.4514 40.1477 65.3437C39.7894 65.2321 39.4324 65.1185 39.0793 64.9934C38.3741 64.7405 37.6803 64.4583 37.0132 64.1168C38.4864 64.3916 39.939 64.6445 41.3952 64.8621C42.8505 65.0779 44.3058 65.2499 45.7629 65.3763C46.4935 65.4472 47.2249 65.4893 47.9573 65.5281C48.3234 65.5471 48.6898 65.5537 49.0566 65.566C49.151 65.5685 49.5123 65.5791 49.6069 65.5808C49.7864 65.5849 49.9658 65.5845 50.1455 65.5859C50.5117 65.5853 50.8787 65.5843 51.247 65.59C51.4353 65.5812 52.1592 65.5584 52.3501 65.5527L52.9057 65.5434C53.0894 65.5297 53.2735 65.5127 53.4591 65.5039C53.8291 65.4807 54.2014 65.4596 54.5788 65.4511C54.226 65.5709 53.8677 65.6782 53.5076 65.7834ZM53.593 67.8471C53.4272 67.9017 53.2601 67.9486 53.0928 67.9987L52.5847 68.1141C52.3637 68.1703 51.7835 68.2733 51.5596 68.3227C51.2147 68.3699 50.8686 68.4115 50.5214 68.4523C50.3479 68.4704 50.1741 68.4884 49.9999 68.5022C49.8861 68.5131 49.5917 68.5266 49.4774 68.5344C49.1289 68.5522 48.7793 68.5654 48.4301 68.5664C48.2011 68.5693 47.6114 68.5555 47.3829 68.5448C47.2083 68.5383 47.0341 68.5276 46.8601 68.5143C46.7462 68.5055 46.4523 68.4825 46.3386 68.4702C44.9491 68.343 43.5713 68.1033 42.2287 67.7394C41.8939 67.6463 41.5602 67.5493 41.2291 67.4439C40.8984 67.336 40.5698 67.2242 40.2446 67.1022C39.5954 66.8555 38.9588 66.5777 38.3485 66.2451C39.7123 66.5062 41.0541 66.7482 42.399 66.9564C43.7431 67.1633 45.0865 67.3282 46.4318 67.4494C47.1068 67.5169 47.7826 67.5589 48.4594 67.5944C48.7978 67.6119 49.1364 67.6199 49.4752 67.6307C49.5854 67.6336 49.8737 67.6416 49.9839 67.6436C50.1489 67.6471 50.3138 67.6473 50.4788 67.649C50.817 67.6475 51.156 67.6471 51.4969 67.6525C51.7165 67.642 52.2936 67.6223 52.5159 67.6155L53.0299 67.6065C53.2 67.5932 53.3697 67.5766 53.5415 67.5678C53.8839 67.5456 54.229 67.5249 54.5788 67.5171C54.2548 67.6361 53.9249 67.7427 53.593 67.8471ZM53.6783 69.9108C53.5269 69.9652 53.3738 70.0117 53.2203 70.0613L52.7544 70.1766C52.5017 70.241 52.0687 70.3284 51.8127 70.385C51.4956 70.4322 51.1771 70.475 50.8578 70.5158C50.6981 70.5339 50.5379 70.5509 50.3775 70.5649C50.2474 70.5772 50.0269 70.5901 49.8964 70.5989C49.5753 70.618 49.2533 70.6305 48.9313 70.6327C48.6699 70.6358 48.2277 70.6268 47.9667 70.6145C47.8059 70.6077 47.6453 70.5977 47.4852 70.5856C47.3548 70.5755 47.1348 70.5573 47.0049 70.5433C45.7252 70.4213 44.4578 70.1871 43.2262 69.8331C42.9193 69.7428 42.6136 69.6475 42.3103 69.5443C42.0074 69.4399 41.7068 69.33 41.41 69.2104C40.8166 68.9702 40.2375 68.6972 39.6839 68.3736C40.9384 68.6207 42.1692 68.8517 43.4028 69.0506C44.6355 69.2489 45.8675 69.4065 47.1007 69.5228C47.72 69.5865 48.3402 69.6288 48.9614 69.6608C49.272 69.6766 49.5828 69.686 49.894 69.6954C50.0198 69.6987 50.2348 69.7043 50.3609 69.7065C50.5111 69.7094 50.6615 69.7104 50.8119 69.7117C51.1223 69.7098 51.4335 69.71 51.7461 69.7147C51.9971 69.7028 52.4278 69.6862 52.6818 69.6786L53.1546 69.6698C53.3105 69.6567 53.4664 69.6405 53.6243 69.6319C53.9389 69.6103 54.2558 69.5904 54.5788 69.5833C54.2832 69.7014 53.9818 69.807 53.6783 69.9108ZM53.7636 71.9747C53.6263 72.0284 53.4871 72.0748 53.348 72.1242L52.924 72.2391C52.6398 72.3115 52.3539 72.3835 52.0661 72.4472C51.7766 72.4944 51.4859 72.5385 51.194 72.5791C50.0265 72.7233 48.84 72.7426 47.6711 72.6162C46.5014 72.4993 45.3443 72.2709 44.2238 71.9269C43.1073 71.576 42.0129 71.1315 41.0192 70.5021C42.1643 70.7355 43.2843 70.9554 44.4067 71.1447C45.528 71.3344 46.6482 71.4847 47.7696 71.5959C48.8911 71.7159 50.0152 71.7653 51.1453 71.7745C51.4274 71.7721 51.7108 71.7729 51.9956 71.777C52.2782 71.7637 52.5622 71.7501 52.8478 71.7415L53.2786 71.7331C53.4209 71.7202 53.5628 71.7044 53.7067 71.6962C53.9938 71.6751 54.2834 71.656 54.5788 71.649C54.3119 71.7665 54.0388 71.8715 53.7636 71.9747ZM75.8682 55.7051C76.4111 55.3535 77.0948 55.1579 77.7405 55.1579C78.4847 55.1579 79.1782 55.4177 79.547 55.9992C80.2433 57.0967 79.4528 58.8095 78.3087 59.5509C77.1151 60.3239 75.5966 60.0905 74.9237 59.0299C74.2509 57.9698 74.6746 56.4781 75.8682 55.7051ZM88.5649 73.7129C88.1745 73.2978 87.7803 73.024 87.394 72.7853C86.6195 72.315 85.8587 72.0028 85.0974 71.7179C83.5762 71.1695 82.0577 70.8005 80.5383 70.4773C77.4985 69.8513 74.4527 69.4711 71.4047 69.1983C69.912 69.0674 68.419 68.9682 66.9261 68.8923C68.9985 67.1861 70.7849 65.1388 72.2023 62.8353C72.8277 63.2576 74.9357 61.332 79.3353 62.2627C79.6479 62.3289 79.9786 62.261 80.2311 62.0635C82.699 60.1313 83.9479 56.1124 82.4745 53.7903C81.1739 51.7403 78.2371 51.4528 75.7036 52.4514C75.7846 51.6388 75.8262 50.8147 75.8262 49.9806C75.8262 48.0605 75.8252 47.2146 75.4005 47.0114C75.4196 47.1041 75.4202 47.1828 75.4202 47.2442C75.4202 47.689 75.4202 49.0429 68.1762 50.1155C63.7096 50.7768 57.775 51.141 51.4662 51.141C45.1505 51.141 39.1963 50.7768 34.7006 50.1155C29.6484 49.3723 28.0932 48.4957 27.6141 47.8787C27.5566 48.3429 27.556 49.0232 27.556 49.9806C27.556 58.1681 31.5503 65.4128 37.677 69.8351C36.7655 69.9364 35.8547 70.0429 34.945 70.1586C31.9339 70.5493 28.9301 71.0144 25.9688 71.6865C24.4891 72.0235 23.0202 72.4196 21.5949 72.9452C20.8856 73.2141 20.1825 73.5121 19.5343 73.9121C19.2113 74.112 18.9007 74.3385 18.6415 74.6192C18.381 74.8926 18.1772 75.2493 18.1742 75.6371C18.1795 75.2493 18.3847 74.8951 18.6459 74.6235C18.9062 74.345 19.2174 74.1206 19.5408 73.9229C20.1902 73.5275 20.8938 73.2336 21.6037 72.9694C23.0303 72.4522 24.5074 72.0932 25.9885 71.7782C28.9571 71.1658 31.968 70.7888 34.9834 70.5195C36.0944 70.4246 37.2067 70.3489 38.3191 70.282C39.2381 70.9012 40.2011 71.4593 41.2031 71.9484C40.5809 72.0662 39.9606 72.1925 39.3445 72.3388C38.5944 72.5151 37.851 72.7252 37.1285 72.9938C36.7688 73.1313 36.4123 73.2836 36.0837 73.4875C35.92 73.5894 35.7625 73.7049 35.6312 73.8479C35.4992 73.9869 35.3963 74.1686 35.3953 74.3653C35.3985 74.1686 35.5031 73.9892 35.6358 73.8524C35.7682 73.7115 35.9261 73.5983 36.0904 73.4984C36.4198 73.299 36.7769 73.1509 37.1372 73.018C37.8613 72.7578 38.6122 72.5849 39.3641 72.4304C40.0732 72.2912 40.7872 72.1808 41.5038 72.091C44.5991 73.5492 48.0505 74.3653 51.6911 74.3653C54.8756 74.3653 57.9155 73.7408 60.6991 72.6087C61.2055 72.6751 61.7114 72.744 62.2149 72.8185C63.7087 73.0431 65.1959 73.2976 66.6252 73.6397C67.3372 73.8077 68.0385 74.0078 68.6666 74.2453C68.7673 74.2835 68.8651 74.3237 68.9608 74.3645C68.8649 74.4055 68.7669 74.4459 68.6662 74.4841C68.0367 74.7169 67.3368 74.9205 66.6244 75.0873C65.1949 75.4269 63.7079 75.6812 62.2145 75.9054C60.7183 76.1251 59.2086 76.3105 57.6922 76.4655C56.1756 76.6222 54.6521 76.7504 53.1241 76.84C50.069 77.0183 46.9947 77.0808 43.9316 76.87C42.401 76.764 40.872 76.5952 39.3641 76.2996C38.6124 76.1454 37.8613 75.9723 37.1372 75.7124C36.7769 75.5793 36.4198 75.4314 36.0904 75.2321C35.9261 75.1322 35.7682 75.019 35.6358 74.8783C35.5033 74.7413 35.3985 74.562 35.3953 74.3653C35.3963 74.562 35.4992 74.7433 35.6312 74.8826C35.7625 75.0255 35.92 75.141 36.0837 75.2431C36.4123 75.447 36.7686 75.5992 37.1283 75.7366C37.8508 76.0059 38.5942 76.2157 39.3443 76.3923C40.8446 76.7486 42.3665 77.0068 43.8931 77.2355C45.4202 77.4596 46.9545 77.6469 48.4935 77.8034C50.0324 77.9627 51.5764 78.0903 53.1241 78.1802C56.2195 78.3586 59.3325 78.4183 62.4574 78.2C64.0207 78.0897 65.5849 77.9164 67.1632 77.6044C67.9531 77.4408 68.7472 77.2613 69.5643 76.9649C69.976 76.8115 70.3903 76.6452 70.8452 76.3708C71.0722 76.2301 71.3137 76.0672 71.576 75.7899C71.7043 75.6529 71.8421 75.4796 71.9615 75.2407C72.0797 75.0073 72.1732 74.6959 72.1716 74.3653C72.1716 74.0347 72.0782 73.7236 71.9603 73.4904C71.8411 73.2516 71.7035 73.0783 71.575 72.9415C71.3129 72.6642 71.0716 72.5014 70.8446 72.3609C70.3899 72.0865 69.9756 71.9201 69.5641 71.7665C68.7454 71.4751 67.9525 71.2921 67.163 71.1293C66.6384 71.0265 66.1159 70.94 65.5944 70.8647C67.4563 71.0392 69.3136 71.2421 71.1629 71.4798C74.1415 71.8668 77.1106 72.3289 80.0009 72.9877C81.4422 73.316 82.8693 73.7022 84.2002 74.1967C84.8583 74.4449 85.5041 74.7245 86.0272 75.0497C86.2872 75.2087 86.5148 75.3857 86.6439 75.5299C86.6827 75.5666 86.6981 75.5959 86.7245 75.6248C86.7263 75.6287 86.729 75.632 86.7312 75.6359C86.7286 75.64 86.7255 75.6441 86.7235 75.6484C86.6971 75.6769 86.6817 75.7067 86.6429 75.7432C86.514 75.8874 86.2866 76.0646 86.0266 76.2233C85.5034 76.5484 84.8577 76.8279 84.1998 77.0761C82.8677 77.5661 81.4418 77.9556 80.0001 78.2831C77.1096 78.9392 74.1407 79.4009 71.1625 79.7877C68.181 80.1671 65.1815 80.474 62.172 80.6893C59.1634 80.9139 56.146 81.0774 53.1241 81.1668C51.0488 81.2269 48.9717 81.2566 46.894 81.2513C37.5652 75.4236 29.9709 71.5772 24.1578 74.2027C22.8338 74.8005 22.0505 78.0479 28.1051 77.4955C31.5519 77.1811 36.1399 77.8635 43.6724 81.2119C40.774 81.1379 37.8745 81.0066 34.9836 80.7525C31.9682 80.4838 28.9573 80.1073 25.9885 79.4954C24.5074 79.1806 23.0305 78.8215 21.6037 78.3046C20.8938 78.0403 20.1902 77.7466 19.5408 77.3511C19.2174 77.1534 18.9062 76.9291 18.6459 76.6505C18.3847 76.3792 18.1795 76.0248 18.1742 75.6371C18.1772 76.0248 18.381 76.3816 18.6415 76.655C18.9007 76.9356 19.2113 77.1623 19.5341 77.3622C20.1825 77.762 20.8856 78.0602 21.5949 78.3288C23.02 78.8549 24.4891 79.251 25.9688 79.5879C28.9299 80.2609 31.9337 80.7267 34.945 81.1176C37.9574 81.5029 40.9819 81.8096 44.0135 82.0268C44.5754 82.069 45.1377 82.1066 45.7 82.1443C46.3528 82.454 47.0235 82.7803 47.718 83.1279C55.0287 86.7873 56.7994 88.6635 61.1802 92.2251C71.5596 100.662 76.0087 90.9549 68.9181 86.6394C63.3848 83.2717 58.19 88.1145 48.6041 82.3205C50.1098 82.3996 51.6164 82.4622 53.1241 82.5067C59.2072 82.688 65.3082 82.6054 71.4053 82.0821C72.9292 81.9445 74.4535 81.7868 75.9754 81.5735C77.4973 81.3623 79.0202 81.1225 80.5391 80.8003C82.0581 80.4758 83.5782 80.1103 85.0979 79.5572C85.8591 79.2723 86.6202 78.9601 87.3948 78.4899C87.7809 78.2513 88.1753 77.9773 88.5659 77.5622C88.7588 77.3571 88.9536 77.1077 89.1142 76.784C89.2742 76.467 89.3939 76.0625 89.3927 75.6371C89.3923 75.2114 89.273 74.8077 89.113 74.4906C88.9524 74.1672 88.7577 73.9178 88.5649 73.7129Z" fill="#FEFEFE"/>
</svg>
