<svg width="24" height="24" viewBox="0 0 24 24" fill="none" xmlns="http://www.w3.org/2000/svg">
<rect width="24" height="24" rx="12" fill="#FEFEFE"/>
<path d="M17.4815 18L12.8953 13.4138C12.5291 13.7258 12.108 13.9673 11.632 14.1382C11.1559 14.309 10.6774 14.3945 10.1965 14.3945C9.02374 14.3945 8.03113 13.9885 7.21868 13.1765C6.40623 12.3646 6 11.3722 6 10.1994C6 9.02666 6.40574 8.0338 7.21721 7.22086C8.02868 6.40792 9.02081 6.00096 10.1936 5.99999C11.3664 5.99901 12.3595 6.40524 13.1729 7.21866C13.9863 8.03209 14.393 9.02495 14.393 10.1972C14.393 10.706 14.303 11.1984 14.1228 11.6744C13.9426 12.1505 13.7058 12.5577 13.4124 12.896L17.9985 17.4815L17.4815 18ZM10.1973 13.6614C11.1689 13.6614 11.9891 13.3269 12.658 12.658C13.3269 11.9891 13.6614 11.1686 13.6614 10.1965C13.6614 9.2244 13.3269 8.40414 12.658 7.73572C11.9891 7.0673 11.1689 6.73285 10.1973 6.73236C9.22563 6.73188 8.40513 7.06633 7.73573 7.73572C7.06634 8.40511 6.73189 9.22537 6.73238 10.1965C6.73287 11.1676 7.06732 11.9879 7.73573 12.6573C8.40415 13.3267 9.22441 13.6611 10.1965 13.6607" fill="#3F966C"/>
</svg>
